<?xml version="1.0" ?><svg enable-background="new 0 0 512 512" id="Layer_1" version="1.1" viewBox="0 0 512 512" xml:space="preserve" xmlns="http://www.w3.org/2000/svg" xmlns:xlink="http://www.w3.org/1999/xlink"><g><g><linearGradient gradientUnits="userSpaceOnUse" id="SVGID_1_" x1="-0.0000027" x2="512" y1="256" y2="256"><stop offset="0" style="stop-color:#00AEEE"/><stop offset="1" style="stop-color:#0095DA"/></linearGradient><circle cx="256" cy="256" fill="url(#SVGID_1_)" r="256"/><linearGradient gradientUnits="userSpaceOnUse" id="SVGID_2_" x1="42.6666641" x2="469.3333435" y1="256.0005188" y2="256.0005188"><stop offset="0" style="stop-color:#0095DA"/><stop offset="1" style="stop-color:#00AEEE"/></linearGradient><path d="M256,469.3338623c-117.6315002,0-213.3333435-95.7018738-213.3333435-213.3333435    c0-117.6309204,95.7018356-213.333313,213.3333435-213.333313c117.6357117,0,213.3333435,95.7024002,213.3333435,213.333313    C469.3333435,373.6319885,373.6357117,469.3338623,256,469.3338623z" fill="url(#SVGID_2_)"/></g><path d="M384.0004883,306.1450806C365.5733337,351.7680054,320.8320007,384,268.5663757,384   c-68.7712097,0-124.5674744-55.7957458-124.5674744-124.5674744c0-52.2666626,32.1813354-97.0069275,77.8042755-115.4325256   c-5.9178772,14.4288025-9.1360016,30.2074585-9.1360016,46.7125397c0,68.8234711,55.7957153,124.5674591,124.5674744,124.5674591   C353.7908936,315.2799988,369.5700989,312.0618591,384.0004883,306.1450806z" id="XMLID_53_" opacity="0.3"/><path d="M376.0004883,298.1450806C357.5733337,343.7680054,312.8320007,376,260.5663757,376   c-68.7712097,0-124.5674744-55.7957458-124.5674744-124.5674591c0-52.2666779,32.1813354-97.0069427,77.8042755-115.4325409   c-5.9178772,14.4288025-9.1360016,30.2074585-9.1360016,46.7125397c0,68.8234558,55.7957153,124.5674591,124.5674744,124.5674591   C345.7908936,307.2799988,361.5700989,304.0618591,376.0004883,298.1450806z" fill="#FFFFFF" id="XMLID_404_"/></g></svg>